PathFileType	4	(X/Y/Z)	RBDS021\RBDS021runT25.trc
DataRate	CameraRate	NumFrames	NumMarkers	Units	OrigDataRate	OrigDataStartFrame	OrigNumFrames
150.000000	150.000000	4	33	mm	150.000000	0	4500
Frame#	Time	L.ASIS			L.Heel.Bottom			L.Heel.Lateral			L.Heel.Top			L.Iliac.Crest			L.MT1			L.MT5			L.PSIS			L.Shank.Bottom.Lateral			L.Shank.Bottom.Medial			L.Shank.Top.Lateral			L.Shank.Top.Medial			L.Thigh.Bottom.Lateral			L.Thigh.Bottom.Medial			L.Thigh.Top.Lateral			L.Thigh.Top.Medial			R.ASIS			R.ASY			R.Heel.Bottom			R.Heel.Lateral			R.Heel.Top			R.Iliac.Crest			R.MT1			R.MT5			R.PSIS			R.Shank.Bottom.Lateral			R.Shank.Bottom.Medial			R.Shank.Top.Lateral			R.Shank.Top.Medial			R.Thigh.Bottom.Lateral			R.Thigh.Bottom.Medial			R.Thigh.Top.Lateral			R.Thigh.Top.Medial			
		X1	Y1	Z1	X2	Y2	Z2	X3	Y3	Z3	X4	Y4	Z4	X5	Y5	Z5	X6	Y6	Z6	X7	Y7	Z7	X8	Y8	Z8	X9	Y9	Z9	X10	Y10	Z10	X11	Y11	Z11	X12	Y12	Z12	X13	Y13	Z13	X14	Y14	Z14	X15	Y15	Z15	X16	Y16	Z16	X17	Y17	Z17	X18	Y18	Z18	X19	Y19	Z19	X20	Y20	Z20	X21	Y21	Z21	X22	Y22	Z22	X23	Y23	Z23	X24	Y24	Z24	X25	Y25	Z25	X26	Y26	Z26	X27	Y27	Z27	X28	Y28	Z28	X29	Y29	Z29	X30	Y30	Z30	X31	Y31	Z31	X32	Y32	Z32	X33	Y33	Z33	

1	0	1957.509448583705	999.1380133872858	880.95957672374	1349.832499504778	265.2780927846302	964.9791781156507	1371.067958902887	251.0012854513822	913.478948090049	1392.513499694125	282.2645614194184	953.265297712659	1925.389219095744	1092.048276012925	841.153160229127	1479.674118080204	91.42026306931852	976.3268574705454	1431.322221785238	110.8846927317805	873.5726470349978	1789.62670424064	1064.812935624321	943.3120260434592	1485.92707712009	298.3609664760928	878.0813136587792	1460.138513097561	326.2678878137385	918.7937413428017	1530.166308531247	363.5885093142424	862.3567247601362	1504.641665555603	391.8909286308334	900.5115172852078	1775.298790579964	659.4056834650535	832.5459600967881	1716.260856331709	690.8979757203298	858.3105377634382	1814.112420937646	758.8877938795895	805.2770079057678	1755.596854799654	788.8083574778453	826.3598029252303	1959.967876672674	1007.229384991765	1097.160313821594	2170.784321412346	122.0694184238959	1070.756000214868	2000.648127668505	69.28200191319928	1011.996694989925	2018.027792521583	77.10562998495726	1064.715917913601	2004.684697630547	112.0171063237815	1025.103994910263	1897.945730855793	1087.022484155368	1145.62444980933	2211.992258871249	97.94924795930513	1019.964481085193	2170.51191315112	61.99711750615709	1118.478999861092	1784.980952387205	1057.955230032809	1025.798800235604	2031.477240965527	207.3297953247057	1099.268026377467	2005.416870196641	214.3538034853572	1054.874933514298	2014.753918908799	288.0914136040218	1119.355755473947	1985.430774172571	290.1343878356495	1074.551590035701	1978.293368059268	667.0213136721052	1150.536710116314	1919.462512398877	640.7930673568486	1116.79077822915	1926.555719303821	762.5312382198834	1163.490245369382	1870.67338310123	737.9869528998116	1130.299934500442	
2	0.006666666666666667	1958.343091801529	997.8172667017491	881.4844343446318	1346.168355156433	275.7525787271785	966.026401543969	1366.310397414169	260.72376494444	914.3167560442663	1389.240297811921	291.313304085469	953.8405888323164	1924.234978964412	1091.183458699001	841.6277125029363	1470.724213625889	97.89942563337708	976.2533649507857	1421.735415821979	118.6660715168309	873.9173160713414	1790.275792511546	1062.504742278491	944.2667970778108	1482.704493341335	304.3393603921445	878.2906003342346	1458.176990229096	332.9536019857757	919.3799171872588	1529.268904409494	367.8644457818662	862.7941336851311	1505.073491022881	396.807111826574	901.2674342164655	1779.466321769418	655.7157304923488	832.4832117298457	1719.879314337334	686.2926943359964	858.230950692544	1816.910294648058	755.8407062408542	805.5178022073358	1757.866524058022	784.8483262703505	826.4915546092243	1960.535622978638	1004.7248809754	1098.118049563818	2168.668877049509	116.837412473376	1071.747638239036	1999.666456058034	67.36567138827638	1007.895666939564	2015.806666177408	73.52465627437424	1061.212070402848	2003.765929913769	109.707866700298	1022.292743625047	1898.872065367103	1084.241643536641	1146.49824407212	2210.891747827048	93.36529301489139	1021.038183001215	2166.501794318482	55.96817681537601	1117.87001509863	1785.596466733852	1054.822242067414	1026.517125511585	2028.891137788859	203.2093462656974	1097.938333180349	2003.728404382182	210.5532423830392	1053.147778226484	2011.700012152806	283.9046213334769	1118.265943538255	1983.49627457421	286.3766501008829	1072.888132047892	1977.374252737902	663.5737442696849	1151.384605312564	1918.367723679022	637.7092817795969	1117.597984663412	1926.323895946264	759.4875811608219	1164.110928621547	1870.278316457896	735.2513038546401	1130.942096334218	
3	0.01333333333333333	1959.139359676297	996.3517607988115	881.9899248579094	1342.959852457495	286.1458281264792	967.1200798666811	1361.988357331518	270.4234586402344	915.1896065484385	1386.405529461137	300.2730909221026	954.461582246698	1923.062098072271	1090.171968930108	842.0844728053818	1462.077674911469	104.3205716798625	976.0541372513529	1412.481347017721	126.5201262086548	874.185112947868	1790.877264669067	1060.032155927409	945.2125153686839	1479.827009568632	310.2438007087046	878.5076418511311	1456.590018711243	339.5203934171836	919.9883767455314	1528.694940603413	372.0449067124921	863.2292489604188	1505.852962735057	401.5901295452545	902.0446978494491	1783.701540760667	651.8545869219568	832.3835672002424	1723.619485085858	681.4716310012628	858.2236190038068	1819.685633589025	752.6297397939188	805.7316042953335	1760.164246706673	780.6886320467996	826.721178981259	1961.083631038041	1002.119671523999	1099.055034112974	2165.856584785125	111.6389274080244	1072.437458054557	1997.897535682486	65.28565874461037	1003.837440908168	2012.856761849756	69.97434476786417	1057.701044846833	2002.097755672701	107.2792501574344	1019.366236414204	1899.778500445127	1081.349194405649	1147.376592917857	2209.020918733756	88.64398241264618	1021.856542591567	2161.810969405145	50.21290130457357	1117.190881743681	1786.158242711142	1051.562107043915	1027.248213875918	2025.777161145225	199.0699675558584	1096.448559459527	2001.484185824722	206.7816970225489	1051.297534876748	2008.271231185603	279.7102892116349	1117.065074119066	1981.156235389014	282.6584599743737	1071.140301814454	1976.411790539519	660.0648575348345	1152.229372058685	1917.231351571405	634.560668107503	1118.402336749609	1926.032228075916	756.3728369395388	1164.730018714764	1869.826314702814	732.4433352174514	1131.58535813473	
4	0.02	1959.859202473023	994.608436445972	882.4637143851203	1340.627505401176	296.3910721132348	968.3197586945042	1358.503162839075	280.0946635841025	916.1443698949195	1384.413118384816	309.0675613045493	955.183772288343	1921.873157902492	1088.842487919724	842.5036007942672	1453.989039609955	110.6473004699552	975.5986826941357	1403.850889154488	134.5469982846264	874.2999086992363	1791.378264408052	1057.218826317407	946.135348544546	1477.605630242162	316.0098005911677	878.7405938665473	1455.719634498556	345.865129536318	920.6382996557068	1528.735775563046	376.0394853037523	863.653004993356	1507.29869747299	406.116115838309	902.8541119448149	1788.062312270194	647.6541811917605	832.2132883546533	1727.585338399125	676.2305988624825	858.3501896975023	1822.419653532576	749.0953540408472	805.8940310194772	1762.516035814984	776.1403957958778	827.1332569565419	1961.586099523901	999.3213485705097	1099.947598331099	2161.732393057535	106.5201517999417	1072.561843574418	1994.646086436653	62.90534355802059	999.8704602281114	2008.537263031136	66.49203701157627	1054.18692761252	1999.01658301419	104.6340943892187	1016.231259488095	1900.64611709102	1078.213824583728	1148.256772916821	2205.699587460342	83.68595263638824	1022.197740011316	2155.84757484432	44.98301554142968	1116.381437611275	1786.608328549506	1048.049613966438	1027.994194807182	2021.68382684934	194.9086913501107	1094.671130485293	1998.202172152448	203.0769282414815	1049.229469662738	2004.162266929265	275.512879215553	1115.664241279949	1978.06820744963	279.0258087457584	1069.248260303184	1975.367476697666	656.433002599906	1153.059576919327	1916.028365339165	631.282398021371	1119.176434671253	1925.616097296277	753.1123317808607	1165.339637665945	1869.266671584798	729.4870643176047	1132.207233928896	
